<?xml version="1.0" ?><!DOCTYPE svg  PUBLIC '-//W3C//DTD SVG 1.1//EN'  'http://www.w3.org/Graphics/SVG/1.1/DTD/svg11.dtd'><svg enable-background="new 0 0 100 100" id="Layer_1" version="1.1" viewBox="0 0 100 100" xml:space="preserve" xmlns="http://www.w3.org/2000/svg" xmlns:xlink="http://www.w3.org/1999/xlink"><g><path d="M24.1,34.4h18.7c1.7,0,3.1-1.4,3.1-3.1V12.6c0-1.7-1.4-3.1-3.1-3.1H24.1c-1.7,0-3.1,1.4-3.1,3.1v18.7   C21,33,22.4,34.4,24.1,34.4z M27.2,15.7h12.5v12.5H27.2V15.7z" fill="#333333"/><path d="M24.1,62.5h18.7c1.7,0,3.1-1.4,3.1-3.1V40.6c0-1.7-1.4-3.1-3.1-3.1H24.1c-1.7,0-3.1,1.4-3.1,3.1v18.7   C21,61.1,22.4,62.5,24.1,62.5z M27.2,43.7h12.5v12.5H27.2V43.7z" fill="#333333"/><path d="M24.1,90.5h18.7c1.7,0,3.1-1.4,3.1-3.1v-6.3h30c1.7,0,3.1-1.4,3.1-3.1V21.6c0-1.7-1.4-3.1-3.1-3.1h-15   l3.3-3.3c1.2-1.2,1.2-3.2,0-4.4c-1.2-1.2-3.2-1.2-4.4,0l-8.6,8.6c-1.2,1.2-1.2,3.2,0,4.4l8.6,8.6c0.6,0.6,1.4,0.9,2.2,0.9   c0.8,0,1.6-0.3,2.2-0.9c1.2-1.2,1.2-3.2,0-4.4l-3.3-3.3h11.8V75H45.9v-6.3c0-1.7-1.4-3.1-3.1-3.1H24.1c-1.7,0-3.1,1.4-3.1,3.1v18.7   C21,89.1,22.4,90.5,24.1,90.5z M27.2,71.8h12.5v12.5H27.2V71.8z" fill="#333333"/></g></svg>